<svg width="222" height="32" viewBox="0 0 222 32" fill="none" xmlns="http://www.w3.org/2000/svg">
<path d="M17.573 3.362H25.044C27.0073 3.362 28.5263 3.86833 29.601 4.881C30.6963 5.89367 31.244 7.27833 31.244 9.035C31.244 10.2957 30.934 11.298 30.314 12.042C29.694 12.786 28.857 13.313 27.803 13.623V13.778C29.0637 14.0673 30.0763 14.6253 30.841 15.452C31.6057 16.258 31.988 17.405 31.988 18.893C31.988 19.7817 31.8433 20.598 31.554 21.342C31.2647 22.086 30.8513 22.737 30.314 23.295C29.7767 23.8323 29.1257 24.256 28.361 24.566C27.617 24.8553 26.7903 25 25.881 25H17.573V3.362ZM24.827 22.334C25.9843 22.334 26.873 22.0963 27.493 21.621C28.113 21.1457 28.423 20.381 28.423 19.327V18.211C28.423 17.157 28.113 16.3923 27.493 15.917C26.873 15.4417 25.9843 15.204 24.827 15.204H20.983V22.334H24.827ZM24.331 12.662C25.4263 12.662 26.253 12.4553 26.811 12.042C27.3897 11.608 27.679 10.895 27.679 9.903V8.787C27.679 7.795 27.3897 7.09233 26.811 6.679C26.253 6.245 25.4263 6.028 24.331 6.028H20.983V12.662H24.331ZM44.9649 22.272H44.8099C44.6446 22.6853 44.4276 23.0883 44.1589 23.481C43.9109 23.853 43.6009 24.1837 43.2289 24.473C42.8569 24.7417 42.4229 24.9587 41.9269 25.124C41.4309 25.2893 40.8522 25.372 40.1909 25.372C38.5789 25.372 37.2769 24.845 36.2849 23.791C35.2929 22.737 34.7969 21.2387 34.7969 19.296V9.004H38.1759V18.8C38.1759 21.342 39.2816 22.613 41.4929 22.613C41.9269 22.613 42.3506 22.5613 42.7639 22.458C43.1772 22.334 43.5492 22.1583 43.8799 21.931C44.2106 21.7037 44.4689 21.4247 44.6549 21.094C44.8616 20.7427 44.9649 20.3293 44.9649 19.854V9.004H48.3439V25H44.9649V22.272ZM52.0208 22.272H57.3218V4.788H52.0208V2.06H60.7008V22.272H66.0018V25H52.0208V22.272ZM69.3687 22.272H74.6697V4.788H69.3687V2.06H78.0487V22.272H83.3497V25H69.3687V22.272ZM94.0326 25.372C92.8132 25.372 91.7179 25.1757 90.7466 24.783C89.7752 24.3903 88.9589 23.8323 88.2976 23.109C87.6362 22.3857 87.1299 21.5177 86.7786 20.505C86.4272 19.4717 86.2516 18.3143 86.2516 17.033C86.2516 15.7517 86.4272 14.5943 86.7786 13.561C87.1506 12.5277 87.6569 11.6493 88.2976 10.926C88.9589 10.182 89.7546 9.61367 90.6846 9.221C91.6146 8.82833 92.6479 8.632 93.7846 8.632C94.9006 8.632 95.9132 8.82833 96.8226 9.221C97.7319 9.593 98.5069 10.1303 99.1476 10.833C99.7882 11.5357 100.274 12.3727 100.605 13.344C100.956 14.3153 101.132 15.39 101.132 16.568V17.839H89.6616V18.366C89.6616 19.6267 90.0542 20.66 90.8396 21.466C91.6249 22.2513 92.7099 22.644 94.0946 22.644C95.1279 22.644 96.0062 22.427 96.7296 21.993C97.4736 21.5383 98.0729 20.939 98.5276 20.195L100.636 22.055C100.098 22.985 99.2716 23.7703 98.1556 24.411C97.0602 25.0517 95.6859 25.372 94.0326 25.372ZM93.7846 11.205C93.1852 11.205 92.6272 11.3083 92.1106 11.515C91.6146 11.7217 91.1806 12.0213 90.8086 12.414C90.4572 12.786 90.1782 13.2303 89.9716 13.747C89.7649 14.2637 89.6616 14.832 89.6616 15.452V15.669H97.6906V15.359C97.6906 14.0983 97.3289 13.096 96.6056 12.352C95.9029 11.5873 94.9626 11.205 93.7846 11.205ZM112 25C110.595 25 109.562 24.628 108.9 23.884C108.239 23.1193 107.908 22.1377 107.908 20.939V11.732H102.979V9.004H106.482C107.082 9.004 107.505 8.89033 107.753 8.663C108.001 8.415 108.125 7.981 108.125 7.361V3.362H111.287V9.004H118.107V11.732H111.287V22.272H118.107V25H112ZM129.379 6.09C128.511 6.09 127.902 5.91433 127.55 5.563C127.22 5.21167 127.054 4.77767 127.054 4.261V3.61C127.054 3.09333 127.22 2.65933 127.55 2.308C127.902 1.95667 128.501 1.781 129.348 1.781C130.216 1.781 130.816 1.95667 131.146 2.308C131.498 2.65933 131.673 3.09333 131.673 3.61V4.261C131.673 4.77767 131.498 5.21167 131.146 5.563C130.816 5.91433 130.227 6.09 129.379 6.09ZM122.218 22.272H127.674V11.732H122.218V9.004H131.053V22.272H136.168V25H122.218V22.272ZM139.039 25V9.004H142.418V11.732H142.573C142.739 11.3187 142.945 10.926 143.193 10.554C143.462 10.1613 143.782 9.83067 144.154 9.562C144.526 9.27267 144.96 9.04533 145.456 8.88C145.952 8.71467 146.531 8.632 147.192 8.632C148.804 8.632 150.106 9.159 151.098 10.213C152.09 11.267 152.586 12.7653 152.586 14.708V25H149.207V15.204C149.207 12.662 148.102 11.391 145.89 11.391C145.456 11.391 145.033 11.453 144.619 11.577C144.206 11.6803 143.834 11.8457 143.503 12.073C143.173 12.3003 142.904 12.5897 142.697 12.941C142.511 13.2923 142.418 13.6953 142.418 14.15V25H139.039ZM156.759 3.362H163.734C165.408 3.362 166.71 3.83733 167.64 4.788C168.57 5.718 169.035 7.082 169.035 8.88C169.035 10.2647 168.756 11.36 168.198 12.166C167.661 12.9513 166.906 13.499 165.935 13.809V13.871C167.237 14.1397 168.229 14.7287 168.911 15.638C169.614 16.5267 169.965 17.715 169.965 19.203C169.965 20.071 169.841 20.8563 169.593 21.559C169.345 22.2617 168.983 22.8713 168.508 23.388C168.053 23.9047 167.485 24.3077 166.803 24.597C166.121 24.8657 165.346 25 164.478 25H156.759V3.362ZM164.292 23.977C165.036 23.977 165.687 23.8737 166.245 23.667C166.803 23.4397 167.268 23.14 167.64 22.768C168.012 22.396 168.291 21.962 168.477 21.466C168.663 20.97 168.756 20.443 168.756 19.885V18.583C168.756 18.025 168.663 17.498 168.477 17.002C168.291 16.506 168.012 16.072 167.64 15.7C167.268 15.3073 166.803 15.0077 166.245 14.801C165.687 14.5737 165.036 14.46 164.292 14.46H157.875V23.977H164.292ZM163.672 13.499C164.375 13.499 164.984 13.3957 165.501 13.189C166.018 12.9823 166.441 12.7033 166.772 12.352C167.123 12.0007 167.382 11.5873 167.547 11.112C167.733 10.616 167.826 10.0993 167.826 9.562V8.291C167.826 7.75367 167.733 7.24733 167.547 6.772C167.382 6.29667 167.123 5.88333 166.772 5.532C166.441 5.18067 166.018 4.90167 165.501 4.695C164.984 4.48833 164.375 4.385 163.672 4.385H157.875V13.499H163.672ZM186.259 9.004H187.375L178.633 30.115C178.468 30.487 178.261 30.7557 178.013 30.921C177.765 31.107 177.403 31.2 176.928 31.2H173.952V30.239H177.486L179.873 24.473L173.487 9.004H174.634L180.4 23.078H180.493L186.259 9.004ZM197.159 25C196.146 25 195.64 24.4833 195.64 23.45V9.965H189.626V9.004H194.617C195.32 9.004 195.671 8.663 195.671 7.981V3.362H196.725V9.004H204.692V9.965H196.725V24.039H204.692V25H197.159ZM215.344 25.372C213.194 25.372 211.51 24.659 210.291 23.233C209.092 21.807 208.493 19.73 208.493 17.002C208.493 14.274 209.092 12.197 210.291 10.771C211.489 9.345 213.122 8.632 215.189 8.632C216.263 8.632 217.214 8.82833 218.041 9.221C218.867 9.593 219.56 10.1303 220.118 10.833C220.676 11.5357 221.099 12.383 221.389 13.375C221.678 14.367 221.823 15.4623 221.823 16.661V17.095H209.671V17.901C209.671 19.9057 210.156 21.497 211.128 22.675C212.12 23.8323 213.525 24.411 215.344 24.411C216.625 24.411 217.71 24.1113 218.599 23.512C219.487 22.9127 220.169 22.0137 220.645 20.815L221.513 21.28C221.037 22.52 220.273 23.512 219.219 24.256C218.185 25 216.894 25.372 215.344 25.372ZM215.189 9.562C213.432 9.562 212.068 10.151 211.097 11.329C210.146 12.507 209.671 14.0983 209.671 16.103V16.227H220.676V16.072C220.676 14.0673 220.2 12.4863 219.25 11.329C218.299 10.151 216.945 9.562 215.189 9.562Z" fill="white"/>
<rect width="8" height="28" fill="#FFDE00"/>
</svg>
